<mxfile host="app.diagrams.net" modified="2021-11-23T18:35:21.227Z" agent="5.0 (Windows NT 10.0; Win64; x64) AppleWebKit/537.36 (KHTML, like Gecko) Chrome/95.0.4638.69 Safari/537.36 Edg/95.0.1020.53" etag="Ik-jBeKFFffgURFOONrB" version="15.8.3" type="github" pages="2">
  <diagram id="r_qnH1HllNbgKLjlJHCZ" name="Page-1">
    <mxGraphModel dx="1929" dy="1783" grid="1" gridSize="10" guides="1" tooltips="1" connect="1" arrows="1" fold="1" page="1" pageScale="1" pageWidth="827" pageHeight="1169" math="0" shadow="0">
      <root>
        <mxCell id="0" />
        <mxCell id="1" parent="0" />
        <mxCell id="hRQEvWgmlyqltlo27F5b-73" value="" style="endArrow=none;html=1;strokeWidth=2;endFill=0;" parent="1" source="r-15waiu_1S-d-hb9AJj-36" target="hRQEvWgmlyqltlo27F5b-71" edge="1">
          <mxGeometry width="50" height="50" relative="1" as="geometry">
            <mxPoint x="553" y="686" as="sourcePoint" />
            <mxPoint x="603" y="636" as="targetPoint" />
          </mxGeometry>
        </mxCell>
        <mxCell id="hRQEvWgmlyqltlo27F5b-68" value="" style="endArrow=none;html=1;strokeWidth=2;endFill=0;" parent="1" source="r-15waiu_1S-d-hb9AJj-36" target="hRQEvWgmlyqltlo27F5b-67" edge="1">
          <mxGeometry width="50" height="50" relative="1" as="geometry">
            <mxPoint x="553" y="766" as="sourcePoint" />
            <mxPoint x="603" y="716" as="targetPoint" />
          </mxGeometry>
        </mxCell>
        <mxCell id="hRQEvWgmlyqltlo27F5b-56" value="" style="endArrow=none;html=1;strokeWidth=1;endFill=0;" parent="1" source="r-15waiu_1S-d-hb9AJj-36" target="hRQEvWgmlyqltlo27F5b-53" edge="1">
          <mxGeometry width="50" height="50" relative="1" as="geometry">
            <mxPoint x="553" y="616" as="sourcePoint" />
            <mxPoint x="603" y="566" as="targetPoint" />
          </mxGeometry>
        </mxCell>
        <mxCell id="hRQEvWgmlyqltlo27F5b-21" value="" style="endArrow=none;html=1;endFill=0;strokeWidth=2;" parent="1" source="lHqvFT1bvPYRfDelncX7-2" target="lHqvFT1bvPYRfDelncX7-4" edge="1">
          <mxGeometry width="50" height="50" relative="1" as="geometry">
            <mxPoint x="738" y="376" as="sourcePoint" />
            <mxPoint x="788" y="326" as="targetPoint" />
          </mxGeometry>
        </mxCell>
        <mxCell id="r-15waiu_1S-d-hb9AJj-67" value="" style="endArrow=none;html=1;fontSize=12;endFill=0;strokeWidth=2;" parent="1" source="r-15waiu_1S-d-hb9AJj-58" target="r-15waiu_1S-d-hb9AJj-68" edge="1">
          <mxGeometry width="50" height="50" relative="1" as="geometry">
            <mxPoint x="1176" y="296.2848101265822" as="sourcePoint" />
            <mxPoint x="1076" y="297" as="targetPoint" />
          </mxGeometry>
        </mxCell>
        <mxCell id="lHqvFT1bvPYRfDelncX7-2" value="&lt;b&gt;Посетитель&lt;/b&gt;" style="shape=umlActor;verticalLabelPosition=bottom;verticalAlign=top;html=1;outlineConnect=0;hachureGap=4;pointerEvents=0;strokeWidth=2;" parent="1" vertex="1">
          <mxGeometry x="-263" y="240" width="30" height="60" as="geometry" />
        </mxCell>
        <mxCell id="lHqvFT1bvPYRfDelncX7-4" value="&lt;font style=&quot;font-size: 12px&quot; face=&quot;Verdana&quot;&gt;вход на сайт&lt;/font&gt;" style="rounded=0;whiteSpace=wrap;html=1;hachureGap=4;pointerEvents=0;strokeWidth=1;fillColor=#fff2cc;strokeColor=#d6b656;" parent="1" vertex="1">
          <mxGeometry x="-203" y="250" width="80" height="40" as="geometry" />
        </mxCell>
        <mxCell id="r-15waiu_1S-d-hb9AJj-36" value="&lt;b&gt;Администратор&lt;/b&gt;" style="shape=umlActor;verticalLabelPosition=bottom;verticalAlign=top;html=1;outlineConnect=0;fontSize=12;strokeWidth=2;" parent="1" vertex="1">
          <mxGeometry x="645" y="672" width="30" height="60" as="geometry" />
        </mxCell>
        <mxCell id="r-15waiu_1S-d-hb9AJj-58" value="&lt;b&gt;Тренер&lt;/b&gt;" style="shape=umlActor;verticalLabelPosition=bottom;verticalAlign=top;html=1;outlineConnect=0;fontSize=12;strokeWidth=2;" parent="1" vertex="1">
          <mxGeometry x="1150" y="179" width="30" height="60" as="geometry" />
        </mxCell>
        <mxCell id="-6DadGu_WhrOCrPKGqgH-32" style="edgeStyle=none;rounded=1;jumpStyle=arc;jumpSize=12;orthogonalLoop=1;jettySize=auto;html=1;" parent="1" source="r-15waiu_1S-d-hb9AJj-68" target="-6DadGu_WhrOCrPKGqgH-31" edge="1">
          <mxGeometry relative="1" as="geometry" />
        </mxCell>
        <mxCell id="r-15waiu_1S-d-hb9AJj-68" value="&lt;font face=&quot;Verdana&quot;&gt;вход в личный кабинет&lt;/font&gt;" style="rounded=0;whiteSpace=wrap;html=1;hachureGap=4;pointerEvents=0;strokeWidth=1;fillColor=#f5f5f5;strokeColor=#666666;fontColor=#333333;" parent="1" vertex="1">
          <mxGeometry x="983" y="189" width="100" height="40" as="geometry" />
        </mxCell>
        <mxCell id="hRQEvWgmlyqltlo27F5b-6" value="&lt;font face=&quot;Verdana&quot;&gt;просмотр&lt;br&gt;расписания тренировок&lt;/font&gt;" style="whiteSpace=wrap;html=1;rounded=0;strokeWidth=1;hachureGap=4;fillColor=#fff2cc;strokeColor=#d6b656;" parent="1" vertex="1">
          <mxGeometry x="24" y="350" width="100" height="43" as="geometry" />
        </mxCell>
        <mxCell id="hRQEvWgmlyqltlo27F5b-8" value="&lt;font face=&quot;Verdana&quot;&gt;просмотр свободных дат&lt;/font&gt;" style="whiteSpace=wrap;html=1;rounded=0;strokeWidth=1;hachureGap=4;fillColor=#fff2cc;strokeColor=#d6b656;" parent="1" vertex="1">
          <mxGeometry x="24" y="416.5" width="100" height="30" as="geometry" />
        </mxCell>
        <mxCell id="hRQEvWgmlyqltlo27F5b-16" value="" style="endArrow=classic;html=1;entryX=0.5;entryY=0;entryDx=0;entryDy=0;exitX=0.5;exitY=1;exitDx=0;exitDy=0;" parent="1" source="hRQEvWgmlyqltlo27F5b-6" target="hRQEvWgmlyqltlo27F5b-8" edge="1">
          <mxGeometry width="50" height="50" relative="1" as="geometry">
            <mxPoint x="652" y="177" as="sourcePoint" />
            <mxPoint x="702" y="127" as="targetPoint" />
          </mxGeometry>
        </mxCell>
        <mxCell id="hRQEvWgmlyqltlo27F5b-19" value="&lt;font face=&quot;Verdana&quot;&gt;информация о&amp;nbsp;&lt;br&gt;тренерах&lt;/font&gt;" style="html=1;dashed=0;whitespace=wrap;shape=partialRectangle;right=0;fontSize=12;strokeWidth=1;fillColor=#f8cecc;strokeColor=#b85450;" parent="1" vertex="1">
          <mxGeometry x="250" y="356.5" width="100" height="30" as="geometry" />
        </mxCell>
        <mxCell id="hRQEvWgmlyqltlo27F5b-22" value="&lt;font face=&quot;Verdana&quot;&gt;индивидуальное расписание&lt;/font&gt;" style="rounded=0;whiteSpace=wrap;html=1;hachureGap=4;pointerEvents=0;strokeWidth=1;fillColor=#f5f5f5;strokeColor=#666666;fontColor=#333333;" parent="1" vertex="1">
          <mxGeometry x="979" y="371" width="107" height="40" as="geometry" />
        </mxCell>
        <mxCell id="hRQEvWgmlyqltlo27F5b-24" value="" style="endArrow=classic;html=1;entryX=0.5;entryY=0;entryDx=0;entryDy=0;" parent="1" source="-6DadGu_WhrOCrPKGqgH-31" target="hRQEvWgmlyqltlo27F5b-22" edge="1">
          <mxGeometry width="50" height="50" relative="1" as="geometry">
            <mxPoint x="820" y="325" as="sourcePoint" />
            <mxPoint x="1030" y="375" as="targetPoint" />
          </mxGeometry>
        </mxCell>
        <mxCell id="hRQEvWgmlyqltlo27F5b-27" value="" style="endArrow=classic;html=1;entryX=0.5;entryY=0;entryDx=0;entryDy=0;exitX=0.5;exitY=1;exitDx=0;exitDy=0;" parent="1" source="hRQEvWgmlyqltlo27F5b-22" target="hRQEvWgmlyqltlo27F5b-31" edge="1">
          <mxGeometry width="50" height="50" relative="1" as="geometry">
            <mxPoint x="820" y="325" as="sourcePoint" />
            <mxPoint x="1032.5" y="495" as="targetPoint" />
          </mxGeometry>
        </mxCell>
        <mxCell id="LkH43tqCNbyHTfC8qqBF-4" style="edgeStyle=orthogonalEdgeStyle;rounded=0;orthogonalLoop=1;jettySize=auto;html=1;endArrow=classic;endFill=1;jumpStyle=arc;" parent="1" edge="1">
          <mxGeometry relative="1" as="geometry">
            <mxPoint x="807.5" y="571" as="targetPoint" />
            <mxPoint x="124" y="511" as="sourcePoint" />
          </mxGeometry>
        </mxCell>
        <mxCell id="hRQEvWgmlyqltlo27F5b-28" value="&lt;font face=&quot;Verdana&quot;&gt;запись на тренировку&lt;/font&gt;" style="whiteSpace=wrap;html=1;rounded=0;strokeWidth=1;hachureGap=4;fillColor=#fff2cc;strokeColor=#d6b656;" parent="1" vertex="1">
          <mxGeometry x="24" y="496" width="100" height="30" as="geometry" />
        </mxCell>
        <mxCell id="hRQEvWgmlyqltlo27F5b-30" value="" style="endArrow=classic;html=1;exitX=0.5;exitY=1;exitDx=0;exitDy=0;entryX=0.5;entryY=0;entryDx=0;entryDy=0;" parent="1" source="hRQEvWgmlyqltlo27F5b-8" target="hRQEvWgmlyqltlo27F5b-28" edge="1">
          <mxGeometry width="50" height="50" relative="1" as="geometry">
            <mxPoint x="572" y="576" as="sourcePoint" />
            <mxPoint x="622" y="526" as="targetPoint" />
          </mxGeometry>
        </mxCell>
        <mxCell id="hRQEvWgmlyqltlo27F5b-31" value="" style="rhombus;whiteSpace=wrap;html=1;fillColor=#f5f5f5;strokeColor=#666666;fontColor=#333333;" parent="1" vertex="1">
          <mxGeometry x="1004.5" y="496" width="57" height="50" as="geometry" />
        </mxCell>
        <mxCell id="hRQEvWgmlyqltlo27F5b-33" value="" style="endArrow=classic;html=1;rounded=0;entryX=0.5;entryY=0;entryDx=0;entryDy=0;edgeStyle=orthogonalEdgeStyle;" parent="1" source="hRQEvWgmlyqltlo27F5b-31" target="hRQEvWgmlyqltlo27F5b-34" edge="1">
          <mxGeometry width="50" height="50" relative="1" as="geometry">
            <mxPoint x="1061.5" y="490" as="sourcePoint" />
            <mxPoint x="1116.5" y="535" as="targetPoint" />
          </mxGeometry>
        </mxCell>
        <mxCell id="hRQEvWgmlyqltlo27F5b-34" value="&lt;font face=&quot;Verdana&quot;&gt;свободные даты&lt;/font&gt;" style="rounded=0;whiteSpace=wrap;html=1;fillColor=#f5f5f5;strokeColor=#666666;fontColor=#333333;" parent="1" vertex="1">
          <mxGeometry x="1066" y="566" width="110" height="45" as="geometry" />
        </mxCell>
        <mxCell id="hRQEvWgmlyqltlo27F5b-35" value="" style="endArrow=classic;html=1;rounded=0;exitX=0;exitY=0.5;exitDx=0;exitDy=0;entryX=0.5;entryY=0;entryDx=0;entryDy=0;edgeStyle=orthogonalEdgeStyle;" parent="1" source="hRQEvWgmlyqltlo27F5b-31" target="hRQEvWgmlyqltlo27F5b-36" edge="1">
          <mxGeometry width="50" height="50" relative="1" as="geometry">
            <mxPoint x="1050.5" y="500" as="sourcePoint" />
            <mxPoint x="940" y="535" as="targetPoint" />
          </mxGeometry>
        </mxCell>
        <mxCell id="hRQEvWgmlyqltlo27F5b-36" value="&lt;font face=&quot;Verdana&quot;&gt;занятые даты&lt;/font&gt;" style="rounded=0;whiteSpace=wrap;html=1;fillColor=#f5f5f5;strokeColor=#666666;fontColor=#333333;" parent="1" vertex="1">
          <mxGeometry x="894.5" y="566" width="110" height="45" as="geometry" />
        </mxCell>
        <mxCell id="LkH43tqCNbyHTfC8qqBF-10" style="edgeStyle=orthogonalEdgeStyle;rounded=0;orthogonalLoop=1;jettySize=auto;html=1;endArrow=classic;endFill=1;" parent="1" source="hRQEvWgmlyqltlo27F5b-37" target="hRQEvWgmlyqltlo27F5b-53" edge="1">
          <mxGeometry relative="1" as="geometry">
            <Array as="points">
              <mxPoint x="770" y="600" />
              <mxPoint x="770" y="600" />
            </Array>
          </mxGeometry>
        </mxCell>
        <mxCell id="hRQEvWgmlyqltlo27F5b-37" value="&lt;font face=&quot;Verdana&quot;&gt;информация&lt;br&gt;&amp;nbsp;о записавшихся&lt;br&gt;&amp;nbsp;посетителях&lt;/font&gt;" style="html=1;dashed=0;whitespace=wrap;shape=partialRectangle;right=0;fontSize=12;strokeWidth=1;fillColor=#f8cecc;strokeColor=#b85450;" parent="1" vertex="1">
          <mxGeometry x="750" y="571" width="115" height="40" as="geometry" />
        </mxCell>
        <mxCell id="hRQEvWgmlyqltlo27F5b-43" value="" style="rhombus;whiteSpace=wrap;html=1;strokeWidth=1;fillColor=#e1d5e7;strokeColor=#9673a6;" parent="1" vertex="1">
          <mxGeometry x="322" y="677" width="50" height="50" as="geometry" />
        </mxCell>
        <mxCell id="hRQEvWgmlyqltlo27F5b-44" value="" style="endArrow=classic;html=1;strokeWidth=1;entryX=1;entryY=0.5;entryDx=0;entryDy=0;exitX=0;exitY=0.5;exitDx=0;exitDy=0;" parent="1" source="hRQEvWgmlyqltlo27F5b-46" target="hRQEvWgmlyqltlo27F5b-43" edge="1">
          <mxGeometry width="50" height="50" relative="1" as="geometry">
            <mxPoint x="458" y="796" as="sourcePoint" />
            <mxPoint x="618" y="576" as="targetPoint" />
          </mxGeometry>
        </mxCell>
        <mxCell id="hRQEvWgmlyqltlo27F5b-45" value="" style="endArrow=none;html=1;strokeWidth=2;endFill=0;" parent="1" source="r-15waiu_1S-d-hb9AJj-36" target="hRQEvWgmlyqltlo27F5b-46" edge="1">
          <mxGeometry width="50" height="50" relative="1" as="geometry">
            <mxPoint x="549" y="626" as="sourcePoint" />
            <mxPoint x="599" y="576" as="targetPoint" />
          </mxGeometry>
        </mxCell>
        <mxCell id="hRQEvWgmlyqltlo27F5b-46" value="&lt;font face=&quot;Verdana&quot;&gt;управление абонементами&lt;/font&gt;" style="rounded=0;whiteSpace=wrap;html=1;fillColor=#e1d5e7;strokeColor=#9673a6;" parent="1" vertex="1">
          <mxGeometry x="428" y="682" width="100" height="40" as="geometry" />
        </mxCell>
        <mxCell id="-6DadGu_WhrOCrPKGqgH-18" style="edgeStyle=orthogonalEdgeStyle;rounded=1;jumpStyle=arc;jumpSize=12;orthogonalLoop=1;jettySize=auto;html=1;" parent="1" source="hRQEvWgmlyqltlo27F5b-47" target="-6DadGu_WhrOCrPKGqgH-16" edge="1">
          <mxGeometry relative="1" as="geometry">
            <mxPoint x="170" y="550" as="sourcePoint" />
          </mxGeometry>
        </mxCell>
        <mxCell id="hRQEvWgmlyqltlo27F5b-47" value="&lt;font style=&quot;font-size: 12px&quot; face=&quot;Verdana&quot;&gt;продление старых&lt;/font&gt;" style="rounded=0;whiteSpace=wrap;html=1;strokeWidth=1;fillColor=#e1d5e7;strokeColor=#9673a6;" parent="1" vertex="1">
          <mxGeometry x="172" y="618.5" width="120" height="40" as="geometry" />
        </mxCell>
        <mxCell id="LkH43tqCNbyHTfC8qqBF-18" style="edgeStyle=orthogonalEdgeStyle;rounded=0;orthogonalLoop=1;jettySize=auto;html=1;endArrow=classic;endFill=1;" parent="1" source="LkH43tqCNbyHTfC8qqBF-16" target="hRQEvWgmlyqltlo27F5b-47" edge="1">
          <mxGeometry relative="1" as="geometry">
            <mxPoint x="339" y="976" as="targetPoint" />
          </mxGeometry>
        </mxCell>
        <mxCell id="hRQEvWgmlyqltlo27F5b-48" value="&lt;font face=&quot;Verdana&quot;&gt;выдача новых&lt;/font&gt;" style="rounded=0;whiteSpace=wrap;html=1;strokeWidth=1;fillColor=#e1d5e7;strokeColor=#9673a6;" parent="1" vertex="1">
          <mxGeometry x="172" y="751.5" width="120" height="40" as="geometry" />
        </mxCell>
        <mxCell id="hRQEvWgmlyqltlo27F5b-51" value="" style="endArrow=classic;html=1;strokeWidth=1;exitX=0.5;exitY=0;exitDx=0;exitDy=0;entryX=1;entryY=0.5;entryDx=0;entryDy=0;" parent="1" source="hRQEvWgmlyqltlo27F5b-43" target="hRQEvWgmlyqltlo27F5b-47" edge="1">
          <mxGeometry width="50" height="50" relative="1" as="geometry">
            <mxPoint x="568" y="602" as="sourcePoint" />
            <mxPoint x="248" y="682" as="targetPoint" />
            <Array as="points">
              <mxPoint x="347" y="639" />
            </Array>
          </mxGeometry>
        </mxCell>
        <mxCell id="hRQEvWgmlyqltlo27F5b-52" value="" style="endArrow=classic;html=1;strokeWidth=1;exitX=0.5;exitY=1;exitDx=0;exitDy=0;entryX=1;entryY=0.5;entryDx=0;entryDy=0;" parent="1" source="hRQEvWgmlyqltlo27F5b-43" target="hRQEvWgmlyqltlo27F5b-48" edge="1">
          <mxGeometry width="50" height="50" relative="1" as="geometry">
            <mxPoint x="568" y="602" as="sourcePoint" />
            <mxPoint x="618" y="552" as="targetPoint" />
            <Array as="points">
              <mxPoint x="347" y="772" />
            </Array>
          </mxGeometry>
        </mxCell>
        <mxCell id="LkH43tqCNbyHTfC8qqBF-8" style="edgeStyle=orthogonalEdgeStyle;rounded=0;orthogonalLoop=1;jettySize=auto;html=1;endArrow=classic;endFill=1;jumpStyle=arc;" parent="1" source="hRQEvWgmlyqltlo27F5b-53" target="LkH43tqCNbyHTfC8qqBF-7" edge="1">
          <mxGeometry relative="1" as="geometry" />
        </mxCell>
        <mxCell id="hRQEvWgmlyqltlo27F5b-53" value="&lt;font face=&quot;Verdana&quot;&gt;составление расписания&lt;/font&gt;" style="rounded=0;whiteSpace=wrap;html=1;strokeWidth=1;fillColor=#e1d5e7;strokeColor=#9673a6;" parent="1" vertex="1">
          <mxGeometry x="600" y="558.5" width="120" height="60" as="geometry" />
        </mxCell>
        <mxCell id="hRQEvWgmlyqltlo27F5b-58" value="&lt;font face=&quot;Verdana&quot;&gt;написание отзыва&lt;/font&gt;" style="whiteSpace=wrap;html=1;dashed=0;strokeWidth=1;fillColor=#fff2cc;strokeColor=#d6b656;" parent="1" vertex="1">
          <mxGeometry x="260" y="446.5" width="80" height="33.5" as="geometry" />
        </mxCell>
        <mxCell id="hRQEvWgmlyqltlo27F5b-60" value="" style="endArrow=classic;html=1;strokeWidth=1;exitX=0.5;exitY=0;exitDx=0;exitDy=0;entryX=0.5;entryY=1;entryDx=0;entryDy=0;" parent="1" source="hRQEvWgmlyqltlo27F5b-58" target="hRQEvWgmlyqltlo27F5b-19" edge="1">
          <mxGeometry width="50" height="50" relative="1" as="geometry">
            <mxPoint x="502" y="486" as="sourcePoint" />
            <mxPoint x="250" y="410" as="targetPoint" />
          </mxGeometry>
        </mxCell>
        <mxCell id="hRQEvWgmlyqltlo27F5b-62" value="&lt;font face=&quot;Verdana&quot;&gt;рейтинг исходя из отзывов&lt;/font&gt;" style="rounded=0;whiteSpace=wrap;html=1;strokeWidth=1;fillColor=#f5f5f5;strokeColor=#666666;fontColor=#333333;" parent="1" vertex="1">
          <mxGeometry x="680" y="274" width="120" height="50" as="geometry" />
        </mxCell>
        <mxCell id="hRQEvWgmlyqltlo27F5b-63" value="" style="endArrow=classic;html=1;strokeWidth=1;" parent="1" source="-6DadGu_WhrOCrPKGqgH-31" target="hRQEvWgmlyqltlo27F5b-62" edge="1">
          <mxGeometry width="50" height="50" relative="1" as="geometry">
            <mxPoint x="693" y="556" as="sourcePoint" />
            <mxPoint x="850" y="380" as="targetPoint" />
          </mxGeometry>
        </mxCell>
        <mxCell id="hRQEvWgmlyqltlo27F5b-66" value="" style="endArrow=classic;html=1;strokeWidth=1;exitX=0.5;exitY=0;exitDx=0;exitDy=0;jumpStyle=arc;edgeStyle=orthogonalEdgeStyle;" parent="1" source="hRQEvWgmlyqltlo27F5b-19" target="hRQEvWgmlyqltlo27F5b-62" edge="1">
          <mxGeometry width="50" height="50" relative="1" as="geometry">
            <mxPoint x="608" y="311" as="sourcePoint" />
            <mxPoint x="703" y="311" as="targetPoint" />
            <Array as="points">
              <mxPoint x="300" y="300" />
            </Array>
          </mxGeometry>
        </mxCell>
        <mxCell id="hRQEvWgmlyqltlo27F5b-67" value="&lt;font face=&quot;Verdana&quot;&gt;создание ленты новостей&lt;/font&gt;" style="rounded=0;whiteSpace=wrap;html=1;strokeWidth=1;fillColor=#e1d5e7;strokeColor=#9673a6;" parent="1" vertex="1">
          <mxGeometry x="425.5" y="741" width="109" height="35" as="geometry" />
        </mxCell>
        <mxCell id="hRQEvWgmlyqltlo27F5b-71" value="&lt;font face=&quot;Verdana&quot;&gt;запрос отзыва&lt;/font&gt;" style="rounded=0;whiteSpace=wrap;html=1;strokeWidth=1;fillColor=#e1d5e7;strokeColor=#9673a6;" parent="1" vertex="1">
          <mxGeometry x="250" y="546" width="100" height="40" as="geometry" />
        </mxCell>
        <mxCell id="hRQEvWgmlyqltlo27F5b-76" style="edgeStyle=elbowEdgeStyle;rounded=0;jumpStyle=arc;orthogonalLoop=1;jettySize=auto;html=1;exitX=1;exitY=0.5;exitDx=0;exitDy=0;strokeWidth=1;fillColor=#f8cecc;strokeColor=#b85450;" parent="1" edge="1">
          <mxGeometry relative="1" as="geometry">
            <mxPoint x="990" y="856" as="sourcePoint" />
            <mxPoint x="990" y="856" as="targetPoint" />
          </mxGeometry>
        </mxCell>
        <mxCell id="hRQEvWgmlyqltlo27F5b-78" value="&lt;font face=&quot;Verdana&quot;&gt;новости&lt;/font&gt;" style="html=1;dashed=0;whitespace=wrap;shape=partialRectangle;right=0;fontSize=12;strokeWidth=1;fillColor=#f8cecc;strokeColor=#b85450;" parent="1" vertex="1">
          <mxGeometry x="436" y="977" width="88" height="40" as="geometry" />
        </mxCell>
        <mxCell id="LkH43tqCNbyHTfC8qqBF-11" style="edgeStyle=orthogonalEdgeStyle;rounded=1;orthogonalLoop=1;jettySize=auto;html=1;endArrow=classic;endFill=1;" parent="1" source="LkH43tqCNbyHTfC8qqBF-7" target="hRQEvWgmlyqltlo27F5b-36" edge="1">
          <mxGeometry relative="1" as="geometry">
            <Array as="points">
              <mxPoint x="920" y="465" />
            </Array>
          </mxGeometry>
        </mxCell>
        <mxCell id="LkH43tqCNbyHTfC8qqBF-7" value="&lt;font face=&quot;Verdana&quot;&gt;расписание&lt;/font&gt;" style="html=1;dashed=0;whitespace=wrap;shape=partialRectangle;right=0;fillColor=#f8cecc;strokeColor=#b85450;" parent="1" vertex="1">
          <mxGeometry x="610" y="446.5" width="100" height="30" as="geometry" />
        </mxCell>
        <mxCell id="LkH43tqCNbyHTfC8qqBF-13" value="&lt;font face=&quot;Verdana&quot;&gt;отзыв&lt;/font&gt;" style="html=1;dashed=0;whitespace=wrap;shape=partialRectangle;right=0;fillColor=#f8cecc;strokeColor=#b85450;" parent="1" vertex="1">
          <mxGeometry x="400" y="448.5" width="100" height="30" as="geometry" />
        </mxCell>
        <mxCell id="LkH43tqCNbyHTfC8qqBF-16" value="&lt;font face=&quot;Verdana&quot;&gt;абонемент&lt;/font&gt;" style="html=1;dashed=0;whitespace=wrap;shape=partialRectangle;right=0;fillColor=#f8cecc;strokeColor=#b85450;" parent="1" vertex="1">
          <mxGeometry x="182" y="691.5" width="100" height="30" as="geometry" />
        </mxCell>
        <mxCell id="Q9Fp-aHvoXJ1NznwTfLz-1" value="" style="rhombus;whiteSpace=wrap;html=1;fillColor=#fff2cc;strokeColor=#d6b656;" parent="1" vertex="1">
          <mxGeometry x="-91" y="245" width="66" height="50" as="geometry" />
        </mxCell>
        <mxCell id="ygINanMgBFVkiVSu3I6Z-2" style="edgeStyle=none;rounded=0;orthogonalLoop=1;jettySize=auto;html=1;startArrow=none;startFill=0;endArrow=classic;endFill=1;exitX=1;exitY=0.5;exitDx=0;exitDy=0;entryX=0.5;entryY=0;entryDx=0;entryDy=0;" parent="1" source="Q9Fp-aHvoXJ1NznwTfLz-2" target="OOh6H_pBIpgeem7Ok1_C-2" edge="1">
          <mxGeometry relative="1" as="geometry" />
        </mxCell>
        <mxCell id="Q9Fp-aHvoXJ1NznwTfLz-2" value="&lt;font face=&quot;Verdana&quot;&gt;регистрирование&lt;/font&gt;" style="rounded=0;whiteSpace=wrap;html=1;hachureGap=4;pointerEvents=0;strokeWidth=1;fillColor=#fff2cc;strokeColor=#d6b656;" parent="1" vertex="1">
          <mxGeometry x="14" y="216" width="119" height="40" as="geometry" />
        </mxCell>
        <mxCell id="Q9Fp-aHvoXJ1NznwTfLz-3" value="" style="endArrow=classic;html=1;rounded=0;entryX=0;entryY=0.5;entryDx=0;entryDy=0;" parent="1" source="lHqvFT1bvPYRfDelncX7-4" target="Q9Fp-aHvoXJ1NznwTfLz-1" edge="1">
          <mxGeometry width="50" height="50" relative="1" as="geometry">
            <mxPoint x="350" y="200" as="sourcePoint" />
            <mxPoint x="400" y="150" as="targetPoint" />
          </mxGeometry>
        </mxCell>
        <mxCell id="Q9Fp-aHvoXJ1NznwTfLz-6" value="" style="endArrow=classic;html=1;rounded=0;exitX=0.5;exitY=1;exitDx=0;exitDy=0;entryX=1;entryY=0.5;entryDx=0;entryDy=0;" parent="1" source="hRQEvWgmlyqltlo27F5b-12" target="tqRiBWsgFwQO4ad9vg3l-2" edge="1">
          <mxGeometry width="50" height="50" relative="1" as="geometry">
            <mxPoint x="559" y="190" as="sourcePoint" />
            <mxPoint x="629" y="240" as="targetPoint" />
          </mxGeometry>
        </mxCell>
        <mxCell id="-6DadGu_WhrOCrPKGqgH-2" style="rounded=0;orthogonalLoop=1;jettySize=auto;html=1;exitX=0.5;exitY=1;exitDx=0;exitDy=0;" parent="1" source="tqRiBWsgFwQO4ad9vg3l-2" target="hRQEvWgmlyqltlo27F5b-6" edge="1">
          <mxGeometry relative="1" as="geometry">
            <mxPoint x="512" y="269" as="sourcePoint" />
          </mxGeometry>
        </mxCell>
        <mxCell id="LkH43tqCNbyHTfC8qqBF-12" style="edgeStyle=orthogonalEdgeStyle;rounded=1;orthogonalLoop=1;jettySize=auto;html=1;entryX=0.75;entryY=0;entryDx=0;entryDy=0;endArrow=classic;endFill=1;jumpStyle=arc;jumpSize=12;" parent="1" source="LkH43tqCNbyHTfC8qqBF-7" target="hRQEvWgmlyqltlo27F5b-34" edge="1">
          <mxGeometry relative="1" as="geometry" />
        </mxCell>
        <mxCell id="hRQEvWgmlyqltlo27F5b-12" value="&lt;font face=&quot;Verdana&quot;&gt;абонемент&lt;/font&gt;" style="html=1;dashed=0;whitespace=wrap;shape=partialRectangle;right=0;fontSize=12;strokeWidth=1;fillColor=#f8cecc;strokeColor=#b85450;" parent="1" vertex="1">
          <mxGeometry x="192" y="221" width="100" height="30" as="geometry" />
        </mxCell>
        <mxCell id="-6DadGu_WhrOCrPKGqgH-16" value="" style="rhombus;whiteSpace=wrap;html=1;strokeWidth=1;fillColor=#e1d5e7;strokeColor=#9673a6;" parent="1" vertex="1">
          <mxGeometry x="92.5" y="613" width="50" height="50" as="geometry" />
        </mxCell>
        <mxCell id="-6DadGu_WhrOCrPKGqgH-22" value="&lt;font face=&quot;Verdana&quot;&gt;продление&lt;/font&gt;" style="rounded=0;whiteSpace=wrap;html=1;strokeWidth=1;fillColor=#e1d5e7;strokeColor=#9673a6;" parent="1" vertex="1">
          <mxGeometry x="-50" y="618" width="120" height="40" as="geometry" />
        </mxCell>
        <mxCell id="ygINanMgBFVkiVSu3I6Z-5" style="edgeStyle=orthogonalEdgeStyle;rounded=0;orthogonalLoop=1;jettySize=auto;html=1;startArrow=none;startFill=0;endArrow=classic;endFill=1;" parent="1" source="-6DadGu_WhrOCrPKGqgH-23" target="LkH43tqCNbyHTfC8qqBF-16" edge="1">
          <mxGeometry relative="1" as="geometry">
            <Array as="points">
              <mxPoint x="-110" y="586" />
              <mxPoint x="-110" y="710" />
            </Array>
          </mxGeometry>
        </mxCell>
        <mxCell id="-6DadGu_WhrOCrPKGqgH-23" value="&lt;font face=&quot;Verdana&quot;&gt;отказ в продлении&lt;/font&gt;" style="rounded=0;whiteSpace=wrap;html=1;strokeWidth=1;fillColor=#e1d5e7;strokeColor=#9673a6;" parent="1" vertex="1">
          <mxGeometry x="-50" y="566" width="120" height="40" as="geometry" />
        </mxCell>
        <mxCell id="-6DadGu_WhrOCrPKGqgH-31" value="" style="rhombus;whiteSpace=wrap;html=1;fillColor=#f5f5f5;strokeColor=#666666;fontColor=#333333;" parent="1" vertex="1">
          <mxGeometry x="1004.5" y="274" width="57" height="50" as="geometry" />
        </mxCell>
        <mxCell id="tqRiBWsgFwQO4ad9vg3l-2" value="&lt;font face=&quot;Verdana&quot;&gt;вход в личный кабинет&lt;/font&gt;" style="rounded=0;whiteSpace=wrap;html=1;hachureGap=4;pointerEvents=0;strokeWidth=1;fillColor=#fff2cc;strokeColor=#d6b656;" parent="1" vertex="1">
          <mxGeometry x="24" y="284" width="100" height="40" as="geometry" />
        </mxCell>
        <mxCell id="tqRiBWsgFwQO4ad9vg3l-3" value="" style="endArrow=classic;html=1;rounded=0;exitX=0.5;exitY=1;exitDx=0;exitDy=0;entryX=0.5;entryY=0;entryDx=0;entryDy=0;" parent="1" source="Q9Fp-aHvoXJ1NznwTfLz-2" target="tqRiBWsgFwQO4ad9vg3l-2" edge="1">
          <mxGeometry width="50" height="50" relative="1" as="geometry">
            <mxPoint x="629.5" y="105" as="sourcePoint" />
            <mxPoint x="569" y="230" as="targetPoint" />
          </mxGeometry>
        </mxCell>
        <mxCell id="tqRiBWsgFwQO4ad9vg3l-4" value="" style="endArrow=classic;html=1;rounded=0;exitX=0.5;exitY=1;exitDx=0;exitDy=0;entryX=0;entryY=0.5;entryDx=0;entryDy=0;" parent="1" source="Q9Fp-aHvoXJ1NznwTfLz-1" target="tqRiBWsgFwQO4ad9vg3l-2" edge="1">
          <mxGeometry width="50" height="50" relative="1" as="geometry">
            <mxPoint x="519" y="270" as="sourcePoint" />
            <mxPoint x="569" y="220" as="targetPoint" />
            <Array as="points">
              <mxPoint x="-58" y="304" />
            </Array>
          </mxGeometry>
        </mxCell>
        <mxCell id="tqRiBWsgFwQO4ad9vg3l-5" value="&lt;font face=&quot;Verdana&quot;&gt;просмотр готовой ленты новостей&lt;/font&gt;" style="rounded=0;whiteSpace=wrap;html=1;strokeWidth=1;fillColor=#e1d5e7;strokeColor=#9673a6;" parent="1" vertex="1">
          <mxGeometry x="606" y="977" width="104" height="40" as="geometry" />
        </mxCell>
        <mxCell id="tqRiBWsgFwQO4ad9vg3l-6" value="" style="endArrow=classic;html=1;rounded=0;exitX=1;exitY=0.25;exitDx=0;exitDy=0;entryX=0;entryY=0.25;entryDx=0;entryDy=0;" parent="1" source="hRQEvWgmlyqltlo27F5b-78" target="tqRiBWsgFwQO4ad9vg3l-5" edge="1">
          <mxGeometry width="50" height="50" relative="1" as="geometry">
            <mxPoint x="534" y="997" as="sourcePoint" />
            <mxPoint x="606" y="997" as="targetPoint" />
          </mxGeometry>
        </mxCell>
        <mxCell id="tqRiBWsgFwQO4ad9vg3l-10" value="" style="endArrow=classic;html=1;rounded=0;exitX=0;exitY=0.5;exitDx=0;exitDy=0;entryX=1;entryY=0.5;entryDx=0;entryDy=0;" parent="1" source="hRQEvWgmlyqltlo27F5b-19" target="hRQEvWgmlyqltlo27F5b-6" edge="1">
          <mxGeometry width="50" height="50" relative="1" as="geometry">
            <mxPoint x="209" y="450" as="sourcePoint" />
            <mxPoint x="259" y="400" as="targetPoint" />
          </mxGeometry>
        </mxCell>
        <mxCell id="tqRiBWsgFwQO4ad9vg3l-12" value="" style="endArrow=classic;html=1;rounded=0;exitX=0.5;exitY=0;exitDx=0;exitDy=0;entryX=1;entryY=0.5;entryDx=0;entryDy=0;shadow=0;jumpStyle=arc;" parent="1" source="LkH43tqCNbyHTfC8qqBF-7" target="hRQEvWgmlyqltlo27F5b-8" edge="1">
          <mxGeometry width="50" height="50" relative="1" as="geometry">
            <mxPoint x="170" y="620" as="sourcePoint" />
            <mxPoint x="220" y="570" as="targetPoint" />
            <Array as="points">
              <mxPoint x="660" y="432" />
            </Array>
          </mxGeometry>
        </mxCell>
        <mxCell id="tqRiBWsgFwQO4ad9vg3l-13" value="" style="endArrow=classic;html=1;rounded=0;shadow=0;jumpStyle=arc;exitX=0.5;exitY=0;exitDx=0;exitDy=0;entryX=1;entryY=0.5;entryDx=0;entryDy=0;" parent="1" source="-6DadGu_WhrOCrPKGqgH-16" target="-6DadGu_WhrOCrPKGqgH-23" edge="1">
          <mxGeometry width="50" height="50" relative="1" as="geometry">
            <mxPoint x="170" y="816" as="sourcePoint" />
            <mxPoint x="220" y="766" as="targetPoint" />
            <Array as="points">
              <mxPoint x="118" y="586" />
            </Array>
          </mxGeometry>
        </mxCell>
        <mxCell id="tqRiBWsgFwQO4ad9vg3l-15" value="" style="endArrow=classic;html=1;rounded=0;shadow=0;jumpStyle=arc;exitX=0;exitY=1;exitDx=0;exitDy=0;entryX=0;entryY=0.5;entryDx=0;entryDy=0;" parent="1" source="Q9Fp-aHvoXJ1NznwTfLz-1" target="JgtcP83Qz82QE53eNdjL-5" edge="1">
          <mxGeometry width="50" height="50" relative="1" as="geometry">
            <mxPoint x="-121" y="520" as="sourcePoint" />
            <mxPoint x="40" y="860" as="targetPoint" />
            <Array as="points">
              <mxPoint x="-74" y="997" />
            </Array>
          </mxGeometry>
        </mxCell>
        <mxCell id="tqRiBWsgFwQO4ad9vg3l-17" value="" style="endArrow=classic;html=1;rounded=0;shadow=0;jumpStyle=arc;entryX=1;entryY=0.5;entryDx=0;entryDy=0;exitX=0;exitY=0.5;exitDx=0;exitDy=0;" parent="1" source="-6DadGu_WhrOCrPKGqgH-16" target="-6DadGu_WhrOCrPKGqgH-22" edge="1">
          <mxGeometry width="50" height="50" relative="1" as="geometry">
            <mxPoint y="809.5" as="sourcePoint" />
            <mxPoint x="50" y="759.5" as="targetPoint" />
          </mxGeometry>
        </mxCell>
        <mxCell id="tqRiBWsgFwQO4ad9vg3l-18" value="" style="endArrow=classic;html=1;rounded=0;shadow=0;jumpStyle=arc;exitX=0.5;exitY=0;exitDx=0;exitDy=0;entryX=0.5;entryY=1;entryDx=0;entryDy=0;" parent="1" source="hRQEvWgmlyqltlo27F5b-71" target="hRQEvWgmlyqltlo27F5b-58" edge="1">
          <mxGeometry width="50" height="50" relative="1" as="geometry">
            <mxPoint x="179" y="430" as="sourcePoint" />
            <mxPoint x="229" y="380" as="targetPoint" />
          </mxGeometry>
        </mxCell>
        <mxCell id="tqRiBWsgFwQO4ad9vg3l-19" value="" style="endArrow=classic;html=1;rounded=0;shadow=0;jumpStyle=arc;exitX=0;exitY=0.5;exitDx=0;exitDy=0;entryX=1;entryY=0.5;entryDx=0;entryDy=0;" parent="1" source="LkH43tqCNbyHTfC8qqBF-13" target="hRQEvWgmlyqltlo27F5b-58" edge="1">
          <mxGeometry width="50" height="50" relative="1" as="geometry">
            <mxPoint x="179" y="430" as="sourcePoint" />
            <mxPoint x="229" y="380" as="targetPoint" />
          </mxGeometry>
        </mxCell>
        <mxCell id="tqRiBWsgFwQO4ad9vg3l-20" value="" style="endArrow=classic;html=1;rounded=0;shadow=0;jumpStyle=arc;exitX=0.5;exitY=0;exitDx=0;exitDy=0;entryX=0;entryY=0.5;entryDx=0;entryDy=0;" parent="1" source="Q9Fp-aHvoXJ1NznwTfLz-1" target="Q9Fp-aHvoXJ1NznwTfLz-2" edge="1">
          <mxGeometry width="50" height="50" relative="1" as="geometry">
            <mxPoint x="-31" y="430" as="sourcePoint" />
            <mxPoint x="19" y="380" as="targetPoint" />
            <Array as="points">
              <mxPoint x="-58" y="236" />
            </Array>
          </mxGeometry>
        </mxCell>
        <mxCell id="OOh6H_pBIpgeem7Ok1_C-1" value="" style="endArrow=classic;html=1;rounded=0;strokeWidth=1;entryX=0;entryY=0.5;entryDx=0;entryDy=0;exitX=0.5;exitY=1;exitDx=0;exitDy=0;edgeStyle=orthogonalEdgeStyle;" parent="1" source="-6DadGu_WhrOCrPKGqgH-22" target="LkH43tqCNbyHTfC8qqBF-16" edge="1">
          <mxGeometry width="50" height="50" relative="1" as="geometry">
            <mxPoint x="430" y="570" as="sourcePoint" />
            <mxPoint x="480" y="520" as="targetPoint" />
          </mxGeometry>
        </mxCell>
        <mxCell id="OOh6H_pBIpgeem7Ok1_C-2" value="&lt;font face=&quot;Verdana&quot;&gt;личные данные&lt;/font&gt;" style="html=1;dashed=0;whitespace=wrap;shape=partialRectangle;right=0;fontSize=12;strokeWidth=1;fillColor=#f8cecc;strokeColor=#b85450;" parent="1" vertex="1">
          <mxGeometry x="192" y="289" width="100" height="30" as="geometry" />
        </mxCell>
        <mxCell id="OOh6H_pBIpgeem7Ok1_C-3" value="" style="endArrow=classic;html=1;rounded=0;shadow=0;strokeWidth=1;" parent="1" source="OOh6H_pBIpgeem7Ok1_C-2" target="tqRiBWsgFwQO4ad9vg3l-2" edge="1">
          <mxGeometry width="50" height="50" relative="1" as="geometry">
            <mxPoint x="430" y="570" as="sourcePoint" />
            <mxPoint x="480" y="520" as="targetPoint" />
          </mxGeometry>
        </mxCell>
        <mxCell id="OOh6H_pBIpgeem7Ok1_C-6" value="" style="endArrow=classic;html=1;rounded=0;shadow=0;strokeWidth=1;exitX=0.5;exitY=0;exitDx=0;exitDy=0;entryX=0.5;entryY=1;entryDx=0;entryDy=0;" parent="1" source="hRQEvWgmlyqltlo27F5b-48" target="LkH43tqCNbyHTfC8qqBF-16" edge="1">
          <mxGeometry width="50" height="50" relative="1" as="geometry">
            <mxPoint x="430" y="580" as="sourcePoint" />
            <mxPoint x="480" y="530" as="targetPoint" />
          </mxGeometry>
        </mxCell>
        <mxCell id="JgtcP83Qz82QE53eNdjL-5" value="&lt;font face=&quot;Verdana&quot;&gt;просмотр ленты новостей&lt;/font&gt;" style="rounded=0;whiteSpace=wrap;html=1;hachureGap=4;pointerEvents=0;strokeWidth=1;fillColor=#fff2cc;strokeColor=#d6b656;" parent="1" vertex="1">
          <mxGeometry x="204" y="977" width="106" height="40" as="geometry" />
        </mxCell>
        <mxCell id="JgtcP83Qz82QE53eNdjL-10" value="" style="endArrow=classic;html=1;rounded=0;exitX=0;exitY=0.5;exitDx=0;exitDy=0;entryX=1;entryY=0.5;entryDx=0;entryDy=0;" parent="1" source="hRQEvWgmlyqltlo27F5b-78" target="JgtcP83Qz82QE53eNdjL-5" edge="1">
          <mxGeometry width="50" height="50" relative="1" as="geometry">
            <mxPoint x="724" y="787" as="sourcePoint" />
            <mxPoint x="456" y="996.9999999999998" as="targetPoint" />
          </mxGeometry>
        </mxCell>
        <mxCell id="9pLSlXAA_YukvxLphd66-1" value="" style="rounded=0;whiteSpace=wrap;html=1;fillColor=none;" parent="1" vertex="1">
          <mxGeometry x="-380" y="-40" width="1710" height="190" as="geometry" />
        </mxCell>
        <mxCell id="9pLSlXAA_YukvxLphd66-2" value="Цель 1" style="text;html=1;strokeColor=none;fillColor=none;align=center;verticalAlign=middle;whiteSpace=wrap;rounded=0;rotation=-90;" parent="1" vertex="1">
          <mxGeometry x="-477.25" y="217.25" width="188.5" height="30" as="geometry" />
        </mxCell>
        <mxCell id="BxK1rzIInm-LLNmKH6sf-1" style="edgeStyle=none;rounded=0;orthogonalLoop=1;jettySize=auto;html=1;startArrow=none;startFill=0;endArrow=classic;endFill=1;exitX=1;exitY=0.5;exitDx=0;exitDy=0;entryX=0;entryY=0.5;entryDx=0;entryDy=0;" parent="1" source="Q9Fp-aHvoXJ1NznwTfLz-2" target="hRQEvWgmlyqltlo27F5b-12" edge="1">
          <mxGeometry relative="1" as="geometry">
            <mxPoint x="139" y="246" as="sourcePoint" />
            <mxPoint x="192" y="236" as="targetPoint" />
          </mxGeometry>
        </mxCell>
        <mxCell id="BxK1rzIInm-LLNmKH6sf-2" value="&lt;font face=&quot;Verdana&quot;&gt;загрузка фото&lt;/font&gt;" style="rounded=0;whiteSpace=wrap;html=1;strokeWidth=1;fillColor=#e1d5e7;strokeColor=#9673a6;" parent="1" vertex="1">
          <mxGeometry x="450" y="858" width="60" height="40" as="geometry" />
        </mxCell>
        <mxCell id="BxK1rzIInm-LLNmKH6sf-3" value="&lt;font face=&quot;Verdana&quot;&gt;загрузка видео&lt;/font&gt;" style="rounded=0;whiteSpace=wrap;html=1;strokeWidth=1;fillColor=#e1d5e7;strokeColor=#9673a6;" parent="1" vertex="1">
          <mxGeometry x="450" y="918" width="60" height="40" as="geometry" />
        </mxCell>
        <mxCell id="BxK1rzIInm-LLNmKH6sf-4" value="&lt;font face=&quot;Verdana&quot;&gt;создание спец.предложений&lt;/font&gt;" style="rounded=0;whiteSpace=wrap;html=1;strokeWidth=1;fillColor=#e1d5e7;strokeColor=#9673a6;" parent="1" vertex="1">
          <mxGeometry x="417.25" y="796" width="125.5" height="40" as="geometry" />
        </mxCell>
        <mxCell id="BxK1rzIInm-LLNmKH6sf-6" value="" style="endArrow=classic;html=1;rounded=0;fontFamily=Verdana;exitX=0.5;exitY=1;exitDx=0;exitDy=0;entryX=0.5;entryY=0;entryDx=0;entryDy=0;" parent="1" source="BxK1rzIInm-LLNmKH6sf-2" target="BxK1rzIInm-LLNmKH6sf-3" edge="1">
          <mxGeometry width="50" height="50" relative="1" as="geometry">
            <mxPoint x="440" y="880" as="sourcePoint" />
            <mxPoint x="490" y="830" as="targetPoint" />
          </mxGeometry>
        </mxCell>
        <mxCell id="BxK1rzIInm-LLNmKH6sf-7" value="" style="endArrow=classic;html=1;rounded=0;fontFamily=Verdana;exitX=0.5;exitY=1;exitDx=0;exitDy=0;entryX=0.5;entryY=0;entryDx=0;entryDy=0;" parent="1" source="hRQEvWgmlyqltlo27F5b-67" target="BxK1rzIInm-LLNmKH6sf-4" edge="1">
          <mxGeometry width="50" height="50" relative="1" as="geometry">
            <mxPoint x="440" y="880" as="sourcePoint" />
            <mxPoint x="490" y="830" as="targetPoint" />
          </mxGeometry>
        </mxCell>
        <mxCell id="BxK1rzIInm-LLNmKH6sf-8" value="" style="endArrow=classic;html=1;rounded=0;fontFamily=Verdana;exitX=0.5;exitY=1;exitDx=0;exitDy=0;entryX=0.5;entryY=0;entryDx=0;entryDy=0;" parent="1" source="BxK1rzIInm-LLNmKH6sf-4" target="BxK1rzIInm-LLNmKH6sf-2" edge="1">
          <mxGeometry width="50" height="50" relative="1" as="geometry">
            <mxPoint x="440" y="880" as="sourcePoint" />
            <mxPoint x="490" y="830" as="targetPoint" />
          </mxGeometry>
        </mxCell>
        <mxCell id="BxK1rzIInm-LLNmKH6sf-11" value="" style="endArrow=classic;html=1;rounded=0;fontFamily=Verdana;exitX=0.5;exitY=1;exitDx=0;exitDy=0;entryX=0.5;entryY=0;entryDx=0;entryDy=0;" parent="1" source="BxK1rzIInm-LLNmKH6sf-3" target="hRQEvWgmlyqltlo27F5b-78" edge="1">
          <mxGeometry width="50" height="50" relative="1" as="geometry">
            <mxPoint x="462.75" y="797" as="sourcePoint" />
            <mxPoint x="390" y="850" as="targetPoint" />
          </mxGeometry>
        </mxCell>
        <mxCell id="BxK1rzIInm-LLNmKH6sf-12" value="" style="endArrow=classic;html=1;rounded=0;exitX=0;exitY=0.75;exitDx=0;exitDy=0;entryX=1;entryY=0.75;entryDx=0;entryDy=0;" parent="1" source="tqRiBWsgFwQO4ad9vg3l-5" target="hRQEvWgmlyqltlo27F5b-78" edge="1">
          <mxGeometry width="50" height="50" relative="1" as="geometry">
            <mxPoint x="590" y="1013" as="sourcePoint" />
            <mxPoint x="550" y="1013" as="targetPoint" />
          </mxGeometry>
        </mxCell>
      </root>
    </mxGraphModel>
  </diagram>
  <diagram id="vGUZI2amddyB2_Z2Pgmm" name="Page-2">
    <mxGraphModel dx="1102" dy="614" grid="1" gridSize="10" guides="1" tooltips="1" connect="1" arrows="1" fold="1" page="1" pageScale="1" pageWidth="827" pageHeight="1169" math="0" shadow="0">
      <root>
        <mxCell id="q77bwz1RYmwtDZW9CCC3-0" />
        <mxCell id="q77bwz1RYmwtDZW9CCC3-1" parent="q77bwz1RYmwtDZW9CCC3-0" />
        <mxCell id="q77bwz1RYmwtDZW9CCC3-2" value="" style="swimlane;childLayout=stackLayout;resizeParent=1;resizeParentMax=0;horizontal=0;startSize=0;horizontalStack=0;" vertex="1" parent="q77bwz1RYmwtDZW9CCC3-1">
          <mxGeometry x="130" y="140" width="1060" height="1930" as="geometry" />
        </mxCell>
        <mxCell id="q77bwz1RYmwtDZW9CCC3-3" value="Посетитель" style="swimlane;startSize=20;horizontal=0;fillColor=#fff2cc;strokeColor=#d6b656;" vertex="1" parent="q77bwz1RYmwtDZW9CCC3-2">
          <mxGeometry width="1060" height="440" as="geometry" />
        </mxCell>
        <mxCell id="q77bwz1RYmwtDZW9CCC3-14" value="" style="ellipse;whiteSpace=wrap;html=1;aspect=fixed;" vertex="1" parent="q77bwz1RYmwtDZW9CCC3-3">
          <mxGeometry x="55" y="190" width="60" height="60" as="geometry" />
        </mxCell>
        <mxCell id="q77bwz1RYmwtDZW9CCC3-15" value="вход на сайт" style="text;html=1;strokeColor=none;fillColor=none;align=center;verticalAlign=middle;whiteSpace=wrap;rounded=0;" vertex="1" parent="q77bwz1RYmwtDZW9CCC3-3">
          <mxGeometry x="40" y="250" width="90" height="30" as="geometry" />
        </mxCell>
        <mxCell id="q77bwz1RYmwtDZW9CCC3-18" value="написание отзыва" style="rounded=1;whiteSpace=wrap;html=1;" vertex="1" parent="q77bwz1RYmwtDZW9CCC3-3">
          <mxGeometry x="450" y="340" width="120" height="60" as="geometry" />
        </mxCell>
        <mxCell id="q77bwz1RYmwtDZW9CCC3-17" value="вход в личный кабинет&lt;span style=&quot;color: rgba(0 , 0 , 0 , 0) ; font-family: monospace ; font-size: 0px&quot;&gt;%3CmxGraphModel%3E%3Croot%3E%3CmxCell%20id%3D%220%22%2F%3E%3CmxCell%20id%3D%221%22%20parent%3D%220%22%2F%3E%3CmxCell%20id%3D%222%22%20value%3D%22%D0%BF%D1%80%D0%BE%D1%85%D0%BE%D0%B6%D0%B4%D0%B5%D0%BD%D0%B8%D0%B5%20%D1%80%D0%B5%D0%B3%D0%B8%D1%81%D1%82%D1%80%D0%B0%D1%86%D0%B8%D0%B8%22%20style%3D%22rounded%3D1%3BwhiteSpace%3Dwrap%3Bhtml%3D1%3B%22%20vertex%3D%221%22%20parent%3D%221%22%3E%3CmxGeometry%20x%3D%22580%22%20y%3D%22340%22%20width%3D%22120%22%20height%3D%2260%22%20as%3D%22geometry%22%2F%3E%3C%2FmxCell%3E%3C%2Froot%3E%3C%2FmxGraphModel%3E&lt;/span&gt;&lt;span style=&quot;color: rgba(0 , 0 , 0 , 0) ; font-family: monospace ; font-size: 0px&quot;&gt;%3CmxGraphModel%3E%3Croot%3E%3CmxCell%20id%3D%220%22%2F%3E%3CmxCell%20id%3D%221%22%20parent%3D%220%22%2F%3E%3CmxCell%20id%3D%222%22%20value%3D%22%D0%BF%D1%80%D0%BE%D1%85%D0%BE%D0%B6%D0%B4%D0%B5%D0%BD%D0%B8%D0%B5%20%D1%80%D0%B5%D0%B3%D0%B8%D1%81%D1%82%D1%80%D0%B0%D1%86%D0%B8%D0%B8%22%20style%3D%22rounded%3D1%3BwhiteSpace%3Dwrap%3Bhtml%3D1%3B%22%20vertex%3D%221%22%20parent%3D%221%22%3E%3CmxGeometry%20x%3D%22580%22%20y%3D%22340%22%20width%3D%22120%22%20height%3D%2260%22%20as%3D%22geometry%22%2F%3E%3C%2FmxCell%3E%3C%2Froot%3E%3C%2FmxGraphModel%3E&lt;/span&gt;" style="rounded=1;whiteSpace=wrap;html=1;" vertex="1" parent="q77bwz1RYmwtDZW9CCC3-3">
          <mxGeometry x="270" y="190" width="120" height="60" as="geometry" />
        </mxCell>
        <mxCell id="q77bwz1RYmwtDZW9CCC3-20" value="просмотр расписания тренировок" style="rounded=1;whiteSpace=wrap;html=1;" vertex="1" parent="q77bwz1RYmwtDZW9CCC3-3">
          <mxGeometry x="430" y="190" width="120" height="60" as="geometry" />
        </mxCell>
        <mxCell id="q77bwz1RYmwtDZW9CCC3-19" value="прохождение регистрации" style="rounded=1;whiteSpace=wrap;html=1;" vertex="1" parent="q77bwz1RYmwtDZW9CCC3-3">
          <mxGeometry x="270" y="21" width="120" height="60" as="geometry" />
        </mxCell>
        <mxCell id="tzltPcoXiM1i-KgV8ux6-1" value="получение абонемента" style="rounded=1;whiteSpace=wrap;html=1;" vertex="1" parent="q77bwz1RYmwtDZW9CCC3-3">
          <mxGeometry x="590" y="21" width="120" height="60" as="geometry" />
        </mxCell>
        <mxCell id="tzltPcoXiM1i-KgV8ux6-0" value="заполнение личных данных" style="rounded=1;whiteSpace=wrap;html=1;" vertex="1" parent="q77bwz1RYmwtDZW9CCC3-3">
          <mxGeometry x="430" y="21" width="120" height="60" as="geometry" />
        </mxCell>
        <mxCell id="tzltPcoXiM1i-KgV8ux6-2" value="" style="rhombus;whiteSpace=wrap;html=1;" vertex="1" parent="q77bwz1RYmwtDZW9CCC3-3">
          <mxGeometry x="180" y="190" width="60" height="60" as="geometry" />
        </mxCell>
        <mxCell id="tzltPcoXiM1i-KgV8ux6-4" value="действия" style="text;html=1;strokeColor=none;fillColor=none;align=center;verticalAlign=middle;whiteSpace=wrap;rounded=0;" vertex="1" parent="q77bwz1RYmwtDZW9CCC3-3">
          <mxGeometry x="119" y="194" width="60" height="30" as="geometry" />
        </mxCell>
        <mxCell id="tzltPcoXiM1i-KgV8ux6-3" value="" style="endArrow=classic;html=1;rounded=0;exitX=1;exitY=0.5;exitDx=0;exitDy=0;entryX=0;entryY=0.5;entryDx=0;entryDy=0;" edge="1" parent="q77bwz1RYmwtDZW9CCC3-3" source="q77bwz1RYmwtDZW9CCC3-14" target="tzltPcoXiM1i-KgV8ux6-2">
          <mxGeometry width="50" height="50" relative="1" as="geometry">
            <mxPoint x="490" y="250" as="sourcePoint" />
            <mxPoint x="180" y="220" as="targetPoint" />
          </mxGeometry>
        </mxCell>
        <mxCell id="tzltPcoXiM1i-KgV8ux6-5" value="" style="endArrow=classic;html=1;rounded=0;exitX=0.5;exitY=0;exitDx=0;exitDy=0;entryX=0;entryY=0.5;entryDx=0;entryDy=0;" edge="1" parent="q77bwz1RYmwtDZW9CCC3-3" source="tzltPcoXiM1i-KgV8ux6-2" target="q77bwz1RYmwtDZW9CCC3-19">
          <mxGeometry width="50" height="50" relative="1" as="geometry">
            <mxPoint x="490" y="250" as="sourcePoint" />
            <mxPoint x="540" y="200" as="targetPoint" />
            <Array as="points">
              <mxPoint x="210" y="51" />
            </Array>
          </mxGeometry>
        </mxCell>
        <mxCell id="tzltPcoXiM1i-KgV8ux6-6" value="просмотр новостей" style="rounded=1;whiteSpace=wrap;html=1;" vertex="1" parent="q77bwz1RYmwtDZW9CCC3-3">
          <mxGeometry x="270" y="340" width="120" height="60" as="geometry" />
        </mxCell>
        <mxCell id="tzltPcoXiM1i-KgV8ux6-7" value="" style="endArrow=classic;html=1;rounded=0;exitX=1;exitY=0.5;exitDx=0;exitDy=0;entryX=0;entryY=0.5;entryDx=0;entryDy=0;" edge="1" parent="q77bwz1RYmwtDZW9CCC3-3" source="tzltPcoXiM1i-KgV8ux6-2" target="q77bwz1RYmwtDZW9CCC3-17">
          <mxGeometry width="50" height="50" relative="1" as="geometry">
            <mxPoint x="490" y="260" as="sourcePoint" />
            <mxPoint x="270" y="220" as="targetPoint" />
          </mxGeometry>
        </mxCell>
        <mxCell id="tzltPcoXiM1i-KgV8ux6-8" value="" style="endArrow=classic;html=1;rounded=0;exitX=0.5;exitY=1;exitDx=0;exitDy=0;entryX=0;entryY=0.5;entryDx=0;entryDy=0;" edge="1" parent="q77bwz1RYmwtDZW9CCC3-3" source="tzltPcoXiM1i-KgV8ux6-2" target="tzltPcoXiM1i-KgV8ux6-6">
          <mxGeometry width="50" height="50" relative="1" as="geometry">
            <mxPoint x="490" y="260" as="sourcePoint" />
            <mxPoint x="540" y="210" as="targetPoint" />
            <Array as="points">
              <mxPoint x="210" y="370" />
            </Array>
          </mxGeometry>
        </mxCell>
        <mxCell id="8Djeq_1F7An600Yv2Wx4-1" value="" style="endArrow=classic;html=1;rounded=0;exitX=1;exitY=0.5;exitDx=0;exitDy=0;entryX=0;entryY=0.5;entryDx=0;entryDy=0;" edge="1" parent="q77bwz1RYmwtDZW9CCC3-3" source="q77bwz1RYmwtDZW9CCC3-19" target="tzltPcoXiM1i-KgV8ux6-0">
          <mxGeometry width="50" height="50" relative="1" as="geometry">
            <mxPoint x="490" y="241" as="sourcePoint" />
            <mxPoint x="540" y="191" as="targetPoint" />
          </mxGeometry>
        </mxCell>
        <mxCell id="8Djeq_1F7An600Yv2Wx4-2" value="" style="endArrow=classic;html=1;rounded=0;exitX=1;exitY=0.5;exitDx=0;exitDy=0;entryX=0;entryY=0.5;entryDx=0;entryDy=0;" edge="1" parent="q77bwz1RYmwtDZW9CCC3-3" source="tzltPcoXiM1i-KgV8ux6-0" target="tzltPcoXiM1i-KgV8ux6-1">
          <mxGeometry width="50" height="50" relative="1" as="geometry">
            <mxPoint x="490" y="241" as="sourcePoint" />
            <mxPoint x="540" y="191" as="targetPoint" />
          </mxGeometry>
        </mxCell>
        <mxCell id="q77bwz1RYmwtDZW9CCC3-16" value="просмотр свободных дат" style="rounded=1;whiteSpace=wrap;html=1;" vertex="1" parent="q77bwz1RYmwtDZW9CCC3-3">
          <mxGeometry x="590" y="190" width="120" height="60" as="geometry" />
        </mxCell>
        <mxCell id="8Djeq_1F7An600Yv2Wx4-3" value="" style="endArrow=classic;html=1;rounded=0;exitX=0.5;exitY=1;exitDx=0;exitDy=0;entryX=0.5;entryY=0;entryDx=0;entryDy=0;" edge="1" parent="q77bwz1RYmwtDZW9CCC3-3" source="q77bwz1RYmwtDZW9CCC3-17" target="tzltPcoXiM1i-KgV8ux6-6">
          <mxGeometry width="50" height="50" relative="1" as="geometry">
            <mxPoint x="490" y="260" as="sourcePoint" />
            <mxPoint x="540" y="210" as="targetPoint" />
          </mxGeometry>
        </mxCell>
        <mxCell id="ARhgAmu1jG9OLpVKbRYn-0" value="" style="endArrow=classic;html=1;rounded=0;exitX=1;exitY=0.5;exitDx=0;exitDy=0;entryX=0;entryY=0.5;entryDx=0;entryDy=0;" edge="1" parent="q77bwz1RYmwtDZW9CCC3-3" source="q77bwz1RYmwtDZW9CCC3-17" target="q77bwz1RYmwtDZW9CCC3-20">
          <mxGeometry width="50" height="50" relative="1" as="geometry">
            <mxPoint x="490" y="260" as="sourcePoint" />
            <mxPoint x="540" y="210" as="targetPoint" />
          </mxGeometry>
        </mxCell>
        <mxCell id="ARhgAmu1jG9OLpVKbRYn-1" value="" style="endArrow=classic;html=1;rounded=0;exitX=1;exitY=0.5;exitDx=0;exitDy=0;entryX=0;entryY=0.5;entryDx=0;entryDy=0;" edge="1" parent="q77bwz1RYmwtDZW9CCC3-3" source="q77bwz1RYmwtDZW9CCC3-20" target="q77bwz1RYmwtDZW9CCC3-16">
          <mxGeometry width="50" height="50" relative="1" as="geometry">
            <mxPoint x="490" y="260" as="sourcePoint" />
            <mxPoint x="540" y="210" as="targetPoint" />
          </mxGeometry>
        </mxCell>
        <mxCell id="ARhgAmu1jG9OLpVKbRYn-3" value="абонемент" style="text;html=1;strokeColor=none;fillColor=none;align=center;verticalAlign=middle;whiteSpace=wrap;rounded=0;" vertex="1" parent="q77bwz1RYmwtDZW9CCC3-3">
          <mxGeometry x="552" y="140" width="60" height="30" as="geometry" />
        </mxCell>
        <mxCell id="ARhgAmu1jG9OLpVKbRYn-2" value="личные данные" style="text;html=1;strokeColor=none;fillColor=none;align=center;verticalAlign=middle;whiteSpace=wrap;rounded=0;" vertex="1" parent="q77bwz1RYmwtDZW9CCC3-3">
          <mxGeometry x="360" y="140" width="110" height="30" as="geometry" />
        </mxCell>
        <mxCell id="ARhgAmu1jG9OLpVKbRYn-5" value="" style="shape=datastore;whiteSpace=wrap;html=1;" vertex="1" parent="q77bwz1RYmwtDZW9CCC3-3">
          <mxGeometry x="390" y="110" width="50" height="40" as="geometry" />
        </mxCell>
        <mxCell id="ARhgAmu1jG9OLpVKbRYn-35" value="" style="shape=datastore;whiteSpace=wrap;html=1;" vertex="1" parent="q77bwz1RYmwtDZW9CCC3-3">
          <mxGeometry x="555" y="110" width="50" height="40" as="geometry" />
        </mxCell>
        <mxCell id="ARhgAmu1jG9OLpVKbRYn-36" value="" style="endArrow=classic;html=1;rounded=0;dashed=1;exitX=0.5;exitY=1;exitDx=0;exitDy=0;entryX=0.5;entryY=0;entryDx=0;entryDy=0;" edge="1" parent="q77bwz1RYmwtDZW9CCC3-3" source="ARhgAmu1jG9OLpVKbRYn-5" target="q77bwz1RYmwtDZW9CCC3-17">
          <mxGeometry width="50" height="50" relative="1" as="geometry">
            <mxPoint x="490" y="270" as="sourcePoint" />
            <mxPoint x="540" y="220" as="targetPoint" />
          </mxGeometry>
        </mxCell>
        <mxCell id="ARhgAmu1jG9OLpVKbRYn-37" value="" style="endArrow=classic;html=1;rounded=0;dashed=1;exitX=0.5;exitY=1;exitDx=0;exitDy=0;entryX=1;entryY=0;entryDx=0;entryDy=0;" edge="1" parent="q77bwz1RYmwtDZW9CCC3-3" source="ARhgAmu1jG9OLpVKbRYn-35" target="q77bwz1RYmwtDZW9CCC3-17">
          <mxGeometry width="50" height="50" relative="1" as="geometry">
            <mxPoint x="500" y="91" as="sourcePoint" />
            <mxPoint x="425" y="120" as="targetPoint" />
          </mxGeometry>
        </mxCell>
        <mxCell id="ARhgAmu1jG9OLpVKbRYn-38" value="" style="endArrow=classic;html=1;rounded=0;dashed=1;exitX=0.5;exitY=0;exitDx=0;exitDy=0;entryX=0.5;entryY=1;entryDx=0;entryDy=0;" edge="1" parent="q77bwz1RYmwtDZW9CCC3-3" source="ARhgAmu1jG9OLpVKbRYn-5" target="tzltPcoXiM1i-KgV8ux6-0">
          <mxGeometry width="50" height="50" relative="1" as="geometry">
            <mxPoint x="400" y="140" as="sourcePoint" />
            <mxPoint x="340" y="200" as="targetPoint" />
          </mxGeometry>
        </mxCell>
        <mxCell id="ARhgAmu1jG9OLpVKbRYn-39" value="" style="endArrow=classic;html=1;rounded=0;dashed=1;exitX=0.5;exitY=0;exitDx=0;exitDy=0;entryX=0.5;entryY=1;entryDx=0;entryDy=0;" edge="1" parent="q77bwz1RYmwtDZW9CCC3-3" source="ARhgAmu1jG9OLpVKbRYn-35" target="tzltPcoXiM1i-KgV8ux6-1">
          <mxGeometry width="50" height="50" relative="1" as="geometry">
            <mxPoint x="425" y="120" as="sourcePoint" />
            <mxPoint x="500" y="91" as="targetPoint" />
          </mxGeometry>
        </mxCell>
        <mxCell id="bMI1ChfUqYFUQO0YlS3o-0" value="запись на тренировку" style="rounded=1;whiteSpace=wrap;html=1;" vertex="1" parent="q77bwz1RYmwtDZW9CCC3-3">
          <mxGeometry x="750" y="190" width="120" height="60" as="geometry" />
        </mxCell>
        <mxCell id="bMI1ChfUqYFUQO0YlS3o-1" value="" style="endArrow=classic;html=1;rounded=0;entryX=0;entryY=0.5;entryDx=0;entryDy=0;exitX=1;exitY=0.5;exitDx=0;exitDy=0;" edge="1" parent="q77bwz1RYmwtDZW9CCC3-3" source="q77bwz1RYmwtDZW9CCC3-16" target="bMI1ChfUqYFUQO0YlS3o-0">
          <mxGeometry width="50" height="50" relative="1" as="geometry">
            <mxPoint x="490" y="350" as="sourcePoint" />
            <mxPoint x="540" y="300" as="targetPoint" />
          </mxGeometry>
        </mxCell>
        <mxCell id="OrY_lRPmpj3hxebaziGQ-0" value="" style="shape=datastore;whiteSpace=wrap;html=1;" vertex="1" parent="q77bwz1RYmwtDZW9CCC3-3">
          <mxGeometry x="920" y="280" width="50" height="40" as="geometry" />
        </mxCell>
        <mxCell id="OrY_lRPmpj3hxebaziGQ-1" value="информация о записавшемся" style="text;html=1;strokeColor=none;fillColor=none;align=center;verticalAlign=middle;whiteSpace=wrap;rounded=0;" vertex="1" parent="q77bwz1RYmwtDZW9CCC3-3">
          <mxGeometry x="900" y="320" width="90" height="30" as="geometry" />
        </mxCell>
        <mxCell id="S2aPBK242yrWKIO49jO1-0" value="" style="endArrow=classic;html=1;rounded=0;dashed=1;exitX=1;exitY=0.5;exitDx=0;exitDy=0;entryX=0.5;entryY=0;entryDx=0;entryDy=0;" edge="1" parent="q77bwz1RYmwtDZW9CCC3-3" source="bMI1ChfUqYFUQO0YlS3o-0" target="OrY_lRPmpj3hxebaziGQ-0">
          <mxGeometry width="50" height="50" relative="1" as="geometry">
            <mxPoint x="590" y="120" as="sourcePoint" />
            <mxPoint x="660" y="91" as="targetPoint" />
            <Array as="points">
              <mxPoint x="945" y="220" />
            </Array>
          </mxGeometry>
        </mxCell>
        <mxCell id="cULRIsN5-n-yC0pXmpDc-1" value="" style="shape=datastore;whiteSpace=wrap;html=1;" vertex="1" parent="q77bwz1RYmwtDZW9CCC3-3">
          <mxGeometry x="669" y="350" width="50" height="40" as="geometry" />
        </mxCell>
        <mxCell id="cULRIsN5-n-yC0pXmpDc-2" value="все отзывы" style="text;html=1;strokeColor=none;fillColor=none;align=center;verticalAlign=middle;whiteSpace=wrap;rounded=0;" vertex="1" parent="q77bwz1RYmwtDZW9CCC3-3">
          <mxGeometry x="655" y="380" width="80" height="30" as="geometry" />
        </mxCell>
        <mxCell id="cULRIsN5-n-yC0pXmpDc-3" value="" style="endArrow=classic;html=1;rounded=0;dashed=1;exitX=1;exitY=0.5;exitDx=0;exitDy=0;entryX=0;entryY=0.5;entryDx=0;entryDy=0;" edge="1" parent="q77bwz1RYmwtDZW9CCC3-3" source="q77bwz1RYmwtDZW9CCC3-18" target="cULRIsN5-n-yC0pXmpDc-1">
          <mxGeometry width="50" height="50" relative="1" as="geometry">
            <mxPoint x="590" y="160" as="sourcePoint" />
            <mxPoint x="630" y="280" as="targetPoint" />
          </mxGeometry>
        </mxCell>
        <mxCell id="q77bwz1RYmwtDZW9CCC3-4" value="Администратор" style="swimlane;startSize=20;horizontal=0;fillColor=#d5e8d4;strokeColor=#82b366;" vertex="1" parent="q77bwz1RYmwtDZW9CCC3-2">
          <mxGeometry y="440" width="1060" height="1110" as="geometry" />
        </mxCell>
        <mxCell id="q77bwz1RYmwtDZW9CCC3-13" value="Новости" style="swimlane;startSize=20;horizontal=0;fillColor=#d5e8d4;strokeColor=#82b366;" vertex="1" parent="q77bwz1RYmwtDZW9CCC3-4">
          <mxGeometry x="20" y="810" width="1040" height="300" as="geometry" />
        </mxCell>
        <mxCell id="q77bwz1RYmwtDZW9CCC3-5" value="Тренер" style="swimlane;startSize=20;horizontal=0;fillColor=#e1d5e7;strokeColor=#9673a6;" vertex="1" parent="q77bwz1RYmwtDZW9CCC3-2">
          <mxGeometry y="1550" width="1060" height="380" as="geometry" />
        </mxCell>
        <mxCell id="q77bwz1RYmwtDZW9CCC3-7" value="" style="swimlane;childLayout=stackLayout;resizeParent=1;resizeParentMax=0;horizontal=0;startSize=0;horizontalStack=0;" vertex="1" parent="q77bwz1RYmwtDZW9CCC3-1">
          <mxGeometry x="150" y="580" width="1040" height="810" as="geometry" />
        </mxCell>
        <mxCell id="q77bwz1RYmwtDZW9CCC3-8" value="Отзыв" style="swimlane;startSize=20;horizontal=0;fillColor=#d5e8d4;strokeColor=#82b366;" vertex="1" parent="q77bwz1RYmwtDZW9CCC3-7">
          <mxGeometry width="1040" height="270" as="geometry" />
        </mxCell>
        <mxCell id="S2aPBK242yrWKIO49jO1-1" value="запрос отзыва" style="rounded=1;whiteSpace=wrap;html=1;" vertex="1" parent="q77bwz1RYmwtDZW9CCC3-8">
          <mxGeometry x="110" y="105" width="120" height="60" as="geometry" />
        </mxCell>
        <mxCell id="cULRIsN5-n-yC0pXmpDc-4" value="составление рейтинга тренера на основе отзывов" style="rounded=1;whiteSpace=wrap;html=1;" vertex="1" parent="q77bwz1RYmwtDZW9CCC3-8">
          <mxGeometry x="609" y="100" width="130" height="60" as="geometry" />
        </mxCell>
        <mxCell id="CxgAVBy801A6PxMEtJZU-0" value="" style="shape=datastore;whiteSpace=wrap;html=1;" vertex="1" parent="q77bwz1RYmwtDZW9CCC3-8">
          <mxGeometry x="765" y="1273" width="50" height="40" as="geometry" />
        </mxCell>
        <mxCell id="CxgAVBy801A6PxMEtJZU-1" value="информация о тренере" style="text;html=1;strokeColor=none;fillColor=none;align=center;verticalAlign=middle;whiteSpace=wrap;rounded=0;" vertex="1" parent="q77bwz1RYmwtDZW9CCC3-8">
          <mxGeometry x="750" y="1323" width="90" height="30" as="geometry" />
        </mxCell>
        <mxCell id="q77bwz1RYmwtDZW9CCC3-9" value="Абонемент" style="swimlane;startSize=20;horizontal=0;fillColor=#d5e8d4;strokeColor=#82b366;" vertex="1" parent="q77bwz1RYmwtDZW9CCC3-7">
          <mxGeometry y="270" width="1040" height="270" as="geometry" />
        </mxCell>
        <mxCell id="q77bwz1RYmwtDZW9CCC3-10" value="Расписание" style="swimlane;startSize=20;horizontal=0;fillColor=#d5e8d4;strokeColor=#82b366;" vertex="1" parent="q77bwz1RYmwtDZW9CCC3-7">
          <mxGeometry y="540" width="1040" height="270" as="geometry" />
        </mxCell>
        <mxCell id="cULRIsN5-n-yC0pXmpDc-0" value="" style="endArrow=classic;html=1;rounded=0;exitX=1;exitY=0.5;exitDx=0;exitDy=0;entryX=0.5;entryY=1;entryDx=0;entryDy=0;" edge="1" parent="q77bwz1RYmwtDZW9CCC3-1" source="S2aPBK242yrWKIO49jO1-1" target="q77bwz1RYmwtDZW9CCC3-18">
          <mxGeometry width="50" height="50" relative="1" as="geometry">
            <mxPoint x="620" y="670" as="sourcePoint" />
            <mxPoint x="670" y="620" as="targetPoint" />
            <Array as="points">
              <mxPoint x="640" y="715" />
            </Array>
          </mxGeometry>
        </mxCell>
        <mxCell id="cULRIsN5-n-yC0pXmpDc-5" value="" style="endArrow=classic;html=1;rounded=0;dashed=1;exitX=0.5;exitY=1;exitDx=0;exitDy=0;entryX=0.5;entryY=0;entryDx=0;entryDy=0;" edge="1" parent="q77bwz1RYmwtDZW9CCC3-1" source="cULRIsN5-n-yC0pXmpDc-1" target="cULRIsN5-n-yC0pXmpDc-4">
          <mxGeometry width="50" height="50" relative="1" as="geometry">
            <mxPoint x="669" y="520" as="sourcePoint" />
            <mxPoint x="809" y="520" as="targetPoint" />
          </mxGeometry>
        </mxCell>
        <mxCell id="CxgAVBy801A6PxMEtJZU-2" value="" style="endArrow=classic;html=1;rounded=0;dashed=1;exitX=0.5;exitY=0;exitDx=0;exitDy=0;entryX=0.5;entryY=1;entryDx=0;entryDy=0;" edge="1" parent="q77bwz1RYmwtDZW9CCC3-1" source="CxgAVBy801A6PxMEtJZU-0" target="bMI1ChfUqYFUQO0YlS3o-0">
          <mxGeometry width="50" height="50" relative="1" as="geometry">
            <mxPoint x="875" y="540" as="sourcePoint" />
            <mxPoint x="875" y="690" as="targetPoint" />
          </mxGeometry>
        </mxCell>
      </root>
    </mxGraphModel>
  </diagram>
</mxfile>
